<svg id="Layer_1" data-name="Layer 1" xmlns="http://www.w3.org/2000/svg" viewBox="0 0 323.93 154.92"><defs><style>.cls-1{fill:#fff;}</style></defs><title>kuu-design-logo</title><path class="cls-1" d="M3,156.22V3.54H6.27V156.22H3Zm83.84,0.13h-4L6.95,74.11,79.34,3.54h3.94L11.18,74.11Z" transform="translate(-3.04 -3.54)"/><path class="cls-1" d="M156.18,158.46c-33.05,0-45.66-20.55-45.66-48.54V3.54h3.24V109.63c0,26.61,11.64,45.78,42.42,45.78S198.5,136,198.5,109.63V3.54h3.24V109.92C201.74,137.91,188.79,158.46,156.18,158.46Z" transform="translate(-3.04 -3.54)"/><path class="cls-1" d="M281.41,158.46c-33.06,0-45.66-20.55-45.66-48.54V3.54H239V109.63c0,26.61,11.64,45.78,42.42,45.78s42.32-19.46,42.32-45.78V3.54H327V109.92C327,137.91,314,158.46,281.41,158.46Z" transform="translate(-3.04 -3.54)"/></svg>